<?xml version="1.0" standalone="no"?>
<!DOCTYPE svg PUBLIC "-//W3C//DTD SVG 20010904//EN"
 "http://www.w3.org/TR/2001/REC-SVG-20010904/DTD/svg10.dtd">
<svg version="1.0" xmlns="http://www.w3.org/2000/svg"
 width="700.000000pt" height="700.000000pt" viewBox="0 0 700.000000 700.000000"
 preserveAspectRatio="xMidYMid meet">
<metadata>
Created by potrace 1.14, written by Peter Selinger 2001-2017
</metadata>
<g transform="translate(0.000000,700.000000) scale(0.100000,-0.100000)"
fill="#000000" stroke="none">
<path d="M3367 6824 c-1 -1 -49 -5 -106 -8 -143 -9 -280 -29 -486 -70 -265
-53 -649 -202 -915 -354 -152 -87 -407 -264 -486 -337 -6 -5 -35 -30 -65 -55
-68 -58 -226 -215 -310 -311 -252 -286 -462 -633 -607 -1009 -35 -90 -113
-340 -127 -405 -65 -311 -89 -522 -89 -775 1 -115 11 -318 18 -355 2 -11 7
-49 11 -85 22 -208 109 -539 205 -781 258 -646 704 -1190 1293 -1574 64 -41
119 -75 122 -75 4 0 19 -9 34 -19 77 -55 398 -200 581 -263 76 -26 283 -84
335 -94 11 -2 31 -6 45 -9 78 -15 176 -31 240 -40 25 -3 56 -8 70 -10 135 -23
620 -23 735 0 11 2 45 7 76 10 31 3 67 8 80 10 13 3 51 10 84 16 406 72 854
252 1204 484 119 78 259 183 343 255 84 72 321 310 387 387 45 53 182 235 218
289 210 317 355 634 453 993 38 136 35 123 64 296 38 223 50 359 50 565 0 114
-10 312 -19 360 -2 14 -6 48 -10 75 -6 62 -22 155 -36 218 l-11 47 -1624 0
-1624 0 2 -612 3 -613 1007 0 c554 0 1009 -3 1013 -6 6 -7 -58 -200 -98 -295
-25 -58 -77 -160 -127 -249 -94 -166 -303 -411 -471 -550 -191 -158 -447 -297
-689 -373 -142 -45 -167 -51 -330 -79 -104 -17 -416 -26 -515 -13 -33 4 -85
11 -115 15 -188 23 -480 120 -657 217 -132 72 -276 168 -356 236 -67 58 -132
119 -165 154 -19 21 -51 55 -71 75 -49 51 -167 211 -224 303 -131 213 -253
549 -282 775 -4 28 -10 77 -15 110 -13 94 -4 418 14 525 29 166 100 420 129
457 5 7 7 19 4 27 -3 8 -3 16 1 18 4 2 28 44 52 93 283 569 777 969 1387 1124
90 23 118 28 193 37 30 3 59 9 63 11 21 13 389 11 497 -2 263 -32 520 -110
730 -223 118 -63 124 -66 130 -72 3 -3 39 -27 80 -54 41 -27 106 -74 143 -104
l68 -55 430 429 429 429 -52 48 c-385 346 -925 630 -1423 748 -115 27 -124 29
-158 34 -16 2 -40 6 -55 9 -30 6 -61 11 -137 22 -27 3 -58 8 -67 10 -60 10
-491 26 -501 18z"/>
</g>
</svg>
